<?xml version="1.0" standalone="no"?>
<!DOCTYPE svg PUBLIC "-//W3C//DTD SVG 20010904//EN"
 "http://www.w3.org/TR/2001/REC-SVG-20010904/DTD/svg10.dtd">
<svg version="1.0" xmlns="http://www.w3.org/2000/svg"
 width="300.000000pt" height="72.000000pt" viewBox="0 0 300.000000 72.000000"
 preserveAspectRatio="xMidYMid meet">
<metadata>
Created by potrace 1.10, written by Peter Selinger 2001-2011
</metadata>
<g transform="translate(0.000000,72.000000) scale(0.100000,-0.100000)"
fill="#000000" stroke="none">
<path d="M465 510 c-27 -3 -43 -12 -50 -26 -15 -30 -12 -209 4 -228 29 -34
101 -7 101 37 0 23 17 22 25 -2 14 -46 38 -54 169 -54 95 -1 129 3 147 15 21
13 26 13 54 -3 29 -17 57 -20 71 -7 3 4 21 4 40 1 36 -6 74 16 74 43 0 15 58
46 71 38 5 -3 9 -14 9 -25 0 -36 19 -59 48 -59 36 0 49 10 57 43 l7 27 17 -32
c16 -33 17 -33 91 -35 47 0 78 3 82 10 6 9 12 9 28 0 27 -18 65 -16 80 2 12
14 15 14 31 -1 14 -13 40 -17 111 -18 51 0 105 3 121 7 24 7 27 5 27 -16 0
-13 11 -34 25 -47 21 -20 28 -22 50 -12 13 6 27 23 31 37 3 14 14 25 23 25 9
1 27 7 40 14 20 11 30 11 55 1 21 -8 51 -10 91 -6 33 4 96 6 140 5 46 -2 85 2
93 8 9 8 16 8 24 0 16 -16 61 -15 76 0 7 7 12 40 12 79 0 53 -4 72 -22 94 -20
26 -24 27 -98 23 -70 -3 -76 -1 -72 15 6 24 -25 57 -54 57 -34 0 -59 -42 -44
-71 11 -20 11 -21 -11 -14 -51 16 -109 17 -132 2 -20 -13 -26 -13 -42 -1 -12
9 -45 14 -92 14 -54 0 -73 3 -73 13 0 23 -33 46 -75 52 -33 6 -47 2 -78 -19
-30 -20 -42 -24 -57 -16 -29 16 -52 12 -77 -12 -21 -19 -35 -22 -113 -23 -85
0 -90 1 -90 21 0 28 -33 56 -61 52 -13 -2 -29 -16 -38 -35 -14 -29 -21 -33
-57 -33 -26 0 -47 6 -55 16 -40 48 -155 61 -196 22 -18 -17 -26 -19 -35 -10
-18 18 -53 14 -72 -7 -13 -15 -31 -20 -67 -19 -30 0 -60 -7 -75 -16 -22 -15
-27 -15 -46 -1 -13 8 -43 15 -70 15 -34 0 -48 4 -48 13 0 36 -55 56 -125 47z
m922 -26 c8 -21 -19 -46 -40 -38 -17 6 -23 35 -10 47 12 13 44 7 50 -9z m937
0 c7 -19 -10 -44 -31 -44 -17 0 -27 24 -19 45 7 20 42 19 50 -1z m-1754 -19
c0 -23 -4 -25 -43 -25 -39 0 -43 -2 -42 -22 1 -19 8 -24 38 -26 29 -3 37 -7
37 -23 0 -15 -7 -19 -35 -19 -35 0 -35 0 -35 -45 0 -43 -1 -45 -30 -45 l-30 0
0 115 0 115 70 0 c68 0 70 -1 70 -25z m590 0 c46 -42 9 -125 -57 -125 -32 0
-33 -1 -33 -40 0 -36 -3 -40 -24 -40 -25 0 -25 1 -28 111 -2 61 -1 113 2 116
12 12 120 -4 140 -22z m714 -1 c9 -34 5 -37 -29 -24 -31 12 -65 5 -65 -13 0
-7 21 -23 48 -37 42 -22 47 -29 50 -62 4 -49 -26 -70 -94 -66 -43 3 -48 6 -55
31 -7 25 -5 28 9 21 9 -4 33 -8 52 -8 46 -1 47 23 3 45 -50 25 -63 39 -63 68
0 47 32 70 96 71 37 0 43 -3 48 -26z m-918 -19 c-5 -20 -3 -25 14 -25 13 0 20
-7 20 -20 0 -13 -7 -20 -20 -20 -16 0 -20 -7 -20 -36 0 -27 5 -37 20 -41 11
-3 20 -14 20 -24 0 -15 -7 -19 -35 -19 -41 0 -55 20 -55 79 0 23 -4 41 -10 41
-5 0 -10 9 -10 20 0 11 5 20 10 20 6 0 10 9 10 19 0 18 15 27 49 30 9 1 11 -6
7 -24z m720 0 c-5 -20 -3 -25 14 -25 13 0 20 -7 20 -20 0 -13 -7 -20 -19 -20
-15 0 -19 -7 -19 -36 0 -27 5 -38 19 -41 10 -3 19 -14 19 -24 0 -15 -7 -19
-35 -19 -42 0 -59 25 -53 81 2 27 0 39 -9 39 -7 0 -13 9 -13 20 0 11 5 20 10
20 6 0 10 9 10 19 0 18 15 27 49 30 9 1 11 -6 7 -24z m-981 -40 c21 -20 25
-34 25 -85 0 -57 -1 -60 -25 -60 -14 0 -25 5 -25 11 0 8 -4 8 -14 0 -25 -21
-69 -9 -80 21 -13 38 14 68 61 68 23 0 33 4 30 13 -3 7 -19 11 -46 9 -31 -2
-41 1 -41 13 0 17 32 33 68 34 13 1 34 -10 47 -24z m149 19 c9 -3 16 -15 16
-25 0 -15 -5 -17 -29 -13 -41 8 -50 -14 -12 -27 85 -30 48 -108 -45 -97 -21 2
-30 9 -32 26 -3 20 -1 21 24 12 29 -11 54 -7 54 9 0 5 -14 12 -30 16 -53 12
-64 70 -17 93 26 12 49 14 71 6z m466 -18 c0 -18 -6 -25 -22 -28 -20 -3 -23
-10 -26 -60 -3 -57 -3 -58 -34 -58 -27 0 -30 3 -24 23 3 12 6 48 6 80 l0 58
35 -3 c19 -1 37 1 41 5 14 14 24 7 24 -17z m245 10 c15 -11 20 -30 23 -85 l4
-71 -32 0 -33 0 5 50 c6 62 -10 92 -37 70 -14 -12 -16 -25 -12 -67 l6 -53 -30
0 -29 0 0 81 0 82 35 -6 c19 -3 37 -1 40 4 9 13 38 11 60 -5z m496 -5 c48 -39
19 -151 -39 -151 -16 0 -33 5 -40 12 -9 9 -12 2 -12 -35 0 -43 -2 -47 -25 -47
l-25 0 0 115 0 115 25 0 c14 0 25 -5 25 -12 0 -8 6 -6 17 5 22 22 45 22 74 -2z
m160 0 c19 -15 24 -30 27 -85 4 -66 4 -66 -22 -66 -14 0 -26 5 -26 12 0 9 -3
9 -12 0 -7 -7 -24 -12 -38 -12 -31 0 -50 17 -50 44 0 31 30 56 67 56 23 0 33
4 30 13 -2 7 -20 11 -46 10 -30 -1 -41 2 -41 13 0 33 76 43 111 15z m284 5
c15 -11 20 -30 23 -85 l4 -71 -31 0 -31 0 0 59 c0 63 -11 81 -37 60 -11 -10
-14 -26 -11 -66 5 -53 4 -53 -24 -53 l-28 0 0 81 0 82 35 -6 c19 -3 37 -1 40
4 9 13 38 11 60 -5z m-1112 -73 c-1 -76 -2 -78 -27 -81 l-26 -3 0 80 0 81 28
0 27 0 -2 -77z m937 -3 c0 -79 0 -80 -25 -80 -25 0 -25 1 -25 80 0 79 0 80 25
80 25 0 25 -1 25 -80z"/>
<path d="M1076 442 c-3 -3 -6 -18 -6 -34 0 -23 4 -28 24 -28 25 0 39 20 30 44
-6 15 -39 28 -48 18z"/>
<path d="M638 333 c-20 -5 -24 -28 -8 -38 13 -8 40 13 40 31 0 14 -3 15 -32 7z"/>
<path d="M1971 376 c-7 -8 -11 -27 -9 -43 4 -40 44 -45 58 -8 13 33 13 31 -6
49 -19 20 -28 20 -43 2z"/>
<path d="M2158 333 c-18 -4 -24 -24 -12 -36 10 -10 44 12 44 28 0 15 -2 16
-32 8z"/>
</g>
</svg>
