<svg version="1.0" xmlns="http://www.w3.org/2000/svg" width="400" height="96" viewBox="0 0 300 72"><path d="M46.5 21c-2.7.3-4.3 1.2-5 2.6-1.5 3-1.2 20.9.4 22.8 2.9 3.4 10.1.7 10.1-3.7 0-2.3 1.7-2.2 2.5.2 1.4 4.6 3.8 5.4 16.9 5.4 9.5.1 12.9-.3 14.7-1.5 2.1-1.3 2.6-1.3 5.4.3 2.9 1.7 5.7 2 7.1.7.3-.4 2.1-.4 4-.1 3.6.6 7.4-1.6 7.4-4.3 0-1.5 5.8-4.6 7.1-3.8.5.3.9 1.4.9 2.5 0 3.6 1.9 5.9 4.8 5.9 3.6 0 4.9-1 5.7-4.3l.7-2.7 1.7 3.2c1.6 3.3 1.7 3.3 9.1 3.5 4.7 0 7.8-.3 8.2-1 .6-.9 1.2-.9 2.8 0 2.7 1.8 6.5 1.6 8-.2 1.2-1.4 1.5-1.4 3.1.1 1.4 1.3 4 1.7 11.1 1.8 5.1 0 10.5-.3 12.1-.7 2.4-.7 2.7-.5 2.7 1.6 0 1.3 1.1 3.4 2.5 4.7 2.1 2 2.8 2.2 5 1.2 1.3-.6 2.7-2.3 3.1-3.7.3-1.4 1.4-2.5 2.3-2.5.9-.1 2.7-.7 4-1.4 2-1.1 3-1.1 5.5-.1 2.1.8 5.1 1 9.1.6 3.3-.4 9.6-.6 14-.5 4.6.2 8.5-.2 9.3-.8.9-.8 1.6-.8 2.4 0 1.6 1.6 6.1 1.5 7.6 0 .7-.7 1.2-4 1.2-7.9 0-5.3-.4-7.2-2.2-9.4-2-2.6-2.4-2.7-9.8-2.3-7 .3-7.6.1-7.2-1.5.6-2.4-2.5-5.7-5.4-5.7-3.4 0-5.9 4.2-4.4 7.1 1.1 2 1.1 2.1-1.1 1.4-5.1-1.6-10.9-1.7-13.2-.2-2 1.3-2.6 1.3-4.2.1-1.2-.9-4.5-1.4-9.2-1.4-5.4 0-7.3-.3-7.3-1.3 0-2.3-3.3-4.6-7.5-5.2-3.3-.6-4.7-.2-7.8 1.9-3 2-4.2 2.4-5.7 1.6-2.9-1.6-5.2-1.2-7.7 1.2-2.1 1.9-3.5 2.2-11.3 2.3-8.5 0-9-.1-9-2.1 0-2.8-3.3-5.6-6.1-5.2-1.3.2-2.9 1.6-3.8 3.5-1.4 2.9-2.1 3.3-5.7 3.3-2.6 0-4.7-.6-5.5-1.6-4-4.8-15.5-6.1-19.6-2.2-1.8 1.7-2.6 1.9-3.5 1-1.8-1.8-5.3-1.4-7.2.7-1.3 1.5-3.1 2-6.7 1.9-3 0-6 .7-7.5 1.6-2.2 1.5-2.7 1.5-4.6.1-1.3-.8-4.3-1.5-7-1.5-3.4 0-4.8-.4-4.8-1.3 0-3.6-5.5-5.6-12.5-4.7zm92.2 2.6c.8 2.1-1.9 4.6-4 3.8-1.7-.6-2.3-3.5-1-4.7 1.2-1.3 4.4-.7 5 .9zm93.7 0c.7 1.9-1 4.4-3.1 4.4-1.7 0-2.7-2.4-1.9-4.5.7-2 4.2-1.9 5 .1zM57 25.5c0 2.3-.4 2.5-4.3 2.5s-4.3.2-4.2 2.2c.1 1.9.8 2.4 3.8 2.6 2.9.3 3.7.7 3.7 2.3 0 1.5-.7 1.9-3.5 1.9-3.5 0-3.5 0-3.5 4.5 0 4.3-.1 4.5-3 4.5h-3V23h7c6.8 0 7 .1 7 2.5zm59 0c4.6 4.2.9 12.5-5.7 12.5-3.2 0-3.3.1-3.3 4 0 3.6-.3 4-2.4 4-2.5 0-2.5-.1-2.8-11.1-.2-6.1-.1-11.3.2-11.6 1.2-1.2 12 .4 14 2.2zm71.4.1c.9 3.4.5 3.7-2.9 2.4-3.1-1.2-6.5-.5-6.5 1.3 0 .7 2.1 2.3 4.8 3.7 4.2 2.2 4.7 2.9 5 6.2.4 4.9-2.6 7-9.4 6.6-4.3-.3-4.8-.6-5.5-3.1-.7-2.5-.5-2.8.9-2.1.9.4 3.3.8 5.2.8 4.6.1 4.7-2.3.3-4.5-5-2.5-6.3-3.9-6.3-6.8 0-4.7 3.2-7 9.6-7.1 3.7 0 4.3.3 4.8 2.6zm-91.8 1.9c-.5 2-.3 2.5 1.4 2.5 1.3 0 2 .7 2 2s-.7 2-2 2c-1.6 0-2 .7-2 3.6 0 2.7.5 3.7 2 4.1 1.1.3 2 1.4 2 2.4 0 1.5-.7 1.9-3.5 1.9-4.1 0-5.5-2-5.5-7.9 0-2.3-.4-4.1-1-4.1-.5 0-1-.9-1-2s.5-2 1-2c.6 0 1-.9 1-1.9 0-1.8 1.5-2.7 4.9-3 .9-.1 1.1.6.7 2.4zm72 0c-.5 2-.3 2.5 1.4 2.5 1.3 0 2 .7 2 2s-.7 2-1.9 2c-1.5 0-1.9.7-1.9 3.6 0 2.7.5 3.8 1.9 4.1 1 .3 1.9 1.4 1.9 2.4 0 1.5-.7 1.9-3.5 1.9-4.2 0-5.9-2.5-5.3-8.1.2-2.7 0-3.9-.9-3.9-.7 0-1.3-.9-1.3-2s.5-2 1-2c.6 0 1-.9 1-1.9 0-1.8 1.5-2.7 4.9-3 .9-.1 1.1.6.7 2.4zm-98.1 4c2.1 2 2.5 3.4 2.5 8.5 0 5.7-.1 6-2.5 6-1.4 0-2.5-.5-2.5-1.1 0-.8-.4-.8-1.4 0-2.5 2.1-6.9.9-8-2.1C56.3 39 59 36 63.7 36c2.3 0 3.3-.4 3-1.3-.3-.7-1.9-1.1-4.6-.9-3.1.2-4.1-.1-4.1-1.3 0-1.7 3.2-3.3 6.8-3.4 1.3-.1 3.4 1 4.7 2.4zm14.9-1.9c.9.3 1.6 1.5 1.6 2.5 0 1.5-.5 1.7-2.9 1.3-4.1-.8-5 1.4-1.2 2.7 8.5 3 4.8 10.8-4.5 9.7-2.1-.2-3-.9-3.2-2.6-.3-2-.1-2.1 2.4-1.2 2.9 1.1 5.4.7 5.4-.9 0-.5-1.4-1.2-3-1.6-5.3-1.2-6.4-7-1.7-9.3 2.6-1.2 4.9-1.4 7.1-.6zm46.6 1.8c0 1.8-.6 2.5-2.2 2.8-2 .3-2.3 1-2.6 6-.3 5.7-.3 5.8-3.4 5.8-2.7 0-3-.3-2.4-2.3.3-1.2.6-4.8.6-8v-5.8l3.5.3c1.9.1 3.7-.1 4.1-.5 1.4-1.4 2.4-.7 2.4 1.7zm24.5-1c1.5 1.1 2 3 2.3 8.5l.4 7.1h-6.5l.5-5c.6-6.2-1-9.2-3.7-7-1.4 1.2-1.6 2.5-1.2 6.7l.6 5.3H142V29.7l3.5.6c1.9.3 3.7.1 4-.4.9-1.3 3.8-1.1 6 .5zm49.6.5c4.8 3.9 1.9 15.1-3.9 15.1-1.6 0-3.3-.5-4-1.2-.9-.9-1.2-.2-1.2 3.5 0 4.3-.2 4.7-2.5 4.7H191V30h2.5c1.4 0 2.5.5 2.5 1.2 0 .8.6.6 1.7-.5 2.2-2.2 4.5-2.2 7.4.2zm16 0c1.9 1.5 2.4 3 2.7 8.5.4 6.6.4 6.6-2.2 6.6-1.4 0-2.6-.5-2.6-1.2 0-.9-.3-.9-1.2 0-.7.7-2.4 1.2-3.8 1.2-3.1 0-5-1.7-5-4.4 0-3.1 3-5.6 6.7-5.6 2.3 0 3.3-.4 3-1.3-.2-.7-2-1.1-4.6-1-3 .1-4.1-.2-4.1-1.3 0-3.3 7.6-4.3 11.1-1.5zm28.4-.5c1.5 1.1 2 3 2.3 8.5l.4 7.1H246v-5.9c0-6.3-1.1-8.1-3.7-6-1.1 1-1.4 2.6-1.1 6.6.5 5.3.4 5.3-2.4 5.3H236V29.7l3.5.6c1.9.3 3.7.1 4-.4.9-1.3 3.8-1.1 6 .5zm-111.2 7.3c-.1 7.6-.2 7.8-2.7 8.1l-2.6.3V30h5.5l-.2 7.7zm93.7.3c0 7.9 0 8-2.5 8s-2.5-.1-2.5-8 0-8 2.5-8 2.5.1 2.5 8z"/><path d="M107.6 27.8c-.3.3-.6 1.8-.6 3.4 0 2.3.4 2.8 2.4 2.8 2.5 0 3.9-2 3-4.4-.6-1.5-3.9-2.8-4.8-1.8zM63.8 38.7c-2 .5-2.4 2.8-.8 3.8 1.3.8 4-1.3 4-3.1 0-1.4-.3-1.5-3.2-.7zm133.3-4.3c-.7.8-1.1 2.7-.9 4.3.4 4 4.4 4.5 5.8.8 1.3-3.3 1.3-3.1-.6-4.9-1.9-2-2.8-2-4.3-.2zm18.7 4.3c-1.8.4-2.4 2.4-1.2 3.6 1 1 4.4-1.2 4.4-2.8 0-1.5-.2-1.6-3.2-.8z"/></svg>